<mxfile host="app.diagrams.net" modified="2024-01-26T03:18:03.979Z" agent="Mozilla/5.0 (Macintosh; Intel Mac OS X 10_15_7) AppleWebKit/537.36 (KHTML, like Gecko) Chrome/120.0.0.0 Safari/537.36" version="23.0.2" etag="ts8bRSZ5NShvMDb52f5j" type="github">
  <diagram name="第 1 页" id="tiruV0Z3Rx5Qyp74kNil">
    <mxGraphModel>
      <root>
        <mxCell id="0" />
        <mxCell id="1" parent="0" />
      </root>
    </mxGraphModel>
  </diagram>
</mxfile>
